<mxfile host="app.diagrams.net" modified="2024-02-08T15:37:26.217Z" agent="Mozilla/5.0 (X11; Linux x86_64; rv:122.0) Gecko/20100101 Firefox/122.0" etag="kLWED6lWG4s5qd1A8CMW" version="23.1.1" type="device">
  <diagram name="Page-1" id="0M59TIalXObUQkMMCEy7">
    <mxGraphModel dx="1426" dy="785" grid="1" gridSize="10" guides="1" tooltips="1" connect="1" arrows="1" fold="1" page="1" pageScale="1" pageWidth="850" pageHeight="1100" math="0" shadow="0">
      <root>
        <mxCell id="0" />
        <mxCell id="1" parent="0" />
        <mxCell id="7HEqON2udwgyDMfMpNwl-20" value="" style="shape=ext;double=1;rounded=1;whiteSpace=wrap;html=1;" vertex="1" parent="1">
          <mxGeometry x="350" y="520" width="140" height="320" as="geometry" />
        </mxCell>
        <mxCell id="7HEqON2udwgyDMfMpNwl-5" value="" style="shape=ext;double=1;rounded=1;whiteSpace=wrap;html=1;" vertex="1" parent="1">
          <mxGeometry x="110" y="520" width="140" height="320" as="geometry" />
        </mxCell>
        <mxCell id="7HEqON2udwgyDMfMpNwl-1" value="" style="rounded=1;whiteSpace=wrap;html=1;" vertex="1" parent="1">
          <mxGeometry x="120" y="880" width="120" height="60" as="geometry" />
        </mxCell>
        <mxCell id="7HEqON2udwgyDMfMpNwl-16" style="edgeStyle=orthogonalEdgeStyle;rounded=0;orthogonalLoop=1;jettySize=auto;html=1;exitX=0.5;exitY=0;exitDx=0;exitDy=0;entryX=0.5;entryY=1;entryDx=0;entryDy=0;" edge="1" parent="1" source="7HEqON2udwgyDMfMpNwl-2" target="7HEqON2udwgyDMfMpNwl-6">
          <mxGeometry relative="1" as="geometry" />
        </mxCell>
        <mxCell id="7HEqON2udwgyDMfMpNwl-2" value="Embeddings &amp;amp; Positional Encoding" style="text;html=1;strokeColor=#9673a6;fillColor=#e1d5e7;align=center;verticalAlign=middle;whiteSpace=wrap;rounded=1;" vertex="1" parent="1">
          <mxGeometry x="120" y="880" width="120" height="60" as="geometry" />
        </mxCell>
        <mxCell id="7HEqON2udwgyDMfMpNwl-4" style="edgeStyle=orthogonalEdgeStyle;rounded=0;orthogonalLoop=1;jettySize=auto;html=1;exitX=0.5;exitY=0;exitDx=0;exitDy=0;entryX=0.5;entryY=1;entryDx=0;entryDy=0;" edge="1" parent="1" source="7HEqON2udwgyDMfMpNwl-3" target="7HEqON2udwgyDMfMpNwl-2">
          <mxGeometry relative="1" as="geometry" />
        </mxCell>
        <mxCell id="7HEqON2udwgyDMfMpNwl-3" value="Input Data" style="text;html=1;strokeColor=none;fillColor=none;align=center;verticalAlign=middle;whiteSpace=wrap;rounded=0;" vertex="1" parent="1">
          <mxGeometry x="150" y="1000" width="60" height="30" as="geometry" />
        </mxCell>
        <mxCell id="7HEqON2udwgyDMfMpNwl-17" style="edgeStyle=orthogonalEdgeStyle;rounded=0;orthogonalLoop=1;jettySize=auto;html=1;exitX=0.5;exitY=0;exitDx=0;exitDy=0;entryX=0.5;entryY=1;entryDx=0;entryDy=0;" edge="1" parent="1" source="7HEqON2udwgyDMfMpNwl-6" target="7HEqON2udwgyDMfMpNwl-7">
          <mxGeometry relative="1" as="geometry" />
        </mxCell>
        <mxCell id="7HEqON2udwgyDMfMpNwl-6" value="" style="rounded=1;whiteSpace=wrap;html=1;fillColor=#ffe6cc;strokeColor=#d79b00;" vertex="1" parent="1">
          <mxGeometry x="120" y="770" width="120" height="60" as="geometry" />
        </mxCell>
        <mxCell id="7HEqON2udwgyDMfMpNwl-18" style="edgeStyle=orthogonalEdgeStyle;rounded=0;orthogonalLoop=1;jettySize=auto;html=1;exitX=0.5;exitY=0;exitDx=0;exitDy=0;entryX=0.5;entryY=1;entryDx=0;entryDy=0;" edge="1" parent="1" source="7HEqON2udwgyDMfMpNwl-7" target="7HEqON2udwgyDMfMpNwl-8">
          <mxGeometry relative="1" as="geometry" />
        </mxCell>
        <mxCell id="7HEqON2udwgyDMfMpNwl-7" value="" style="rounded=1;whiteSpace=wrap;html=1;fillColor=#dae8fc;strokeColor=#6c8ebf;" vertex="1" parent="1">
          <mxGeometry x="120" y="690" width="120" height="60" as="geometry" />
        </mxCell>
        <mxCell id="7HEqON2udwgyDMfMpNwl-19" style="edgeStyle=orthogonalEdgeStyle;rounded=0;orthogonalLoop=1;jettySize=auto;html=1;exitX=0.5;exitY=0;exitDx=0;exitDy=0;entryX=0.5;entryY=1;entryDx=0;entryDy=0;" edge="1" parent="1" source="7HEqON2udwgyDMfMpNwl-8" target="7HEqON2udwgyDMfMpNwl-9">
          <mxGeometry relative="1" as="geometry" />
        </mxCell>
        <mxCell id="7HEqON2udwgyDMfMpNwl-8" value="" style="rounded=1;whiteSpace=wrap;html=1;fillColor=#fff2cc;strokeColor=#d6b656;" vertex="1" parent="1">
          <mxGeometry x="120" y="610" width="120" height="60" as="geometry" />
        </mxCell>
        <mxCell id="7HEqON2udwgyDMfMpNwl-33" style="edgeStyle=orthogonalEdgeStyle;rounded=0;orthogonalLoop=1;jettySize=auto;html=1;exitX=0.5;exitY=0;exitDx=0;exitDy=0;entryX=0.5;entryY=1;entryDx=0;entryDy=0;" edge="1" parent="1" source="7HEqON2udwgyDMfMpNwl-9" target="7HEqON2udwgyDMfMpNwl-23">
          <mxGeometry relative="1" as="geometry" />
        </mxCell>
        <mxCell id="7HEqON2udwgyDMfMpNwl-9" value="" style="rounded=1;whiteSpace=wrap;html=1;fillColor=#f8cecc;strokeColor=#b85450;" vertex="1" parent="1">
          <mxGeometry x="120" y="530" width="120" height="60" as="geometry" />
        </mxCell>
        <mxCell id="7HEqON2udwgyDMfMpNwl-10" value="Probabilistic Sparse Attention" style="text;html=1;strokeColor=none;fillColor=none;align=center;verticalAlign=middle;whiteSpace=wrap;rounded=0;" vertex="1" parent="1">
          <mxGeometry x="130" y="785" width="100" height="30" as="geometry" />
        </mxCell>
        <mxCell id="7HEqON2udwgyDMfMpNwl-11" value="Feed Forward" style="text;html=1;strokeColor=none;fillColor=none;align=center;verticalAlign=middle;whiteSpace=wrap;rounded=0;" vertex="1" parent="1">
          <mxGeometry x="130" y="705" width="100" height="30" as="geometry" />
        </mxCell>
        <mxCell id="7HEqON2udwgyDMfMpNwl-12" value="linear layer" style="text;html=1;strokeColor=none;fillColor=none;align=center;verticalAlign=middle;whiteSpace=wrap;rounded=0;" vertex="1" parent="1">
          <mxGeometry x="130" y="625" width="100" height="30" as="geometry" />
        </mxCell>
        <mxCell id="7HEqON2udwgyDMfMpNwl-13" value="NaN &amp;amp; fast convergence detection" style="text;html=1;strokeColor=none;fillColor=none;align=center;verticalAlign=middle;whiteSpace=wrap;rounded=0;" vertex="1" parent="1">
          <mxGeometry x="130" y="540" width="100" height="40" as="geometry" />
        </mxCell>
        <mxCell id="7HEqON2udwgyDMfMpNwl-22" style="edgeStyle=orthogonalEdgeStyle;rounded=0;orthogonalLoop=1;jettySize=auto;html=1;exitX=0.5;exitY=0;exitDx=0;exitDy=0;entryX=0.5;entryY=1;entryDx=0;entryDy=0;" edge="1" parent="1" source="7HEqON2udwgyDMfMpNwl-23" target="7HEqON2udwgyDMfMpNwl-25">
          <mxGeometry relative="1" as="geometry" />
        </mxCell>
        <mxCell id="7HEqON2udwgyDMfMpNwl-23" value="" style="rounded=1;whiteSpace=wrap;html=1;fillColor=#ffe6cc;strokeColor=#d79b00;" vertex="1" parent="1">
          <mxGeometry x="360" y="770" width="120" height="60" as="geometry" />
        </mxCell>
        <mxCell id="7HEqON2udwgyDMfMpNwl-24" style="edgeStyle=orthogonalEdgeStyle;rounded=0;orthogonalLoop=1;jettySize=auto;html=1;exitX=0.5;exitY=0;exitDx=0;exitDy=0;entryX=0.5;entryY=1;entryDx=0;entryDy=0;" edge="1" parent="1" source="7HEqON2udwgyDMfMpNwl-25" target="7HEqON2udwgyDMfMpNwl-27">
          <mxGeometry relative="1" as="geometry" />
        </mxCell>
        <mxCell id="7HEqON2udwgyDMfMpNwl-25" value="" style="rounded=1;whiteSpace=wrap;html=1;fillColor=#dae8fc;strokeColor=#6c8ebf;" vertex="1" parent="1">
          <mxGeometry x="360" y="690" width="120" height="60" as="geometry" />
        </mxCell>
        <mxCell id="7HEqON2udwgyDMfMpNwl-26" style="edgeStyle=orthogonalEdgeStyle;rounded=0;orthogonalLoop=1;jettySize=auto;html=1;exitX=0.5;exitY=0;exitDx=0;exitDy=0;entryX=0.5;entryY=1;entryDx=0;entryDy=0;" edge="1" parent="1" source="7HEqON2udwgyDMfMpNwl-27" target="7HEqON2udwgyDMfMpNwl-28">
          <mxGeometry relative="1" as="geometry" />
        </mxCell>
        <mxCell id="7HEqON2udwgyDMfMpNwl-27" value="" style="rounded=1;whiteSpace=wrap;html=1;fillColor=#fff2cc;strokeColor=#d6b656;" vertex="1" parent="1">
          <mxGeometry x="360" y="610" width="120" height="60" as="geometry" />
        </mxCell>
        <mxCell id="7HEqON2udwgyDMfMpNwl-40" style="edgeStyle=orthogonalEdgeStyle;rounded=0;orthogonalLoop=1;jettySize=auto;html=1;exitX=0.5;exitY=0;exitDx=0;exitDy=0;entryX=0.5;entryY=1;entryDx=0;entryDy=0;" edge="1" parent="1" source="7HEqON2udwgyDMfMpNwl-28" target="7HEqON2udwgyDMfMpNwl-39">
          <mxGeometry relative="1" as="geometry" />
        </mxCell>
        <mxCell id="7HEqON2udwgyDMfMpNwl-28" value="" style="rounded=1;whiteSpace=wrap;html=1;fillColor=#f8cecc;strokeColor=#b85450;" vertex="1" parent="1">
          <mxGeometry x="360" y="530" width="120" height="60" as="geometry" />
        </mxCell>
        <mxCell id="7HEqON2udwgyDMfMpNwl-29" value="&lt;div&gt;Learned&lt;/div&gt;&lt;div&gt;Sparse Attention&lt;/div&gt;" style="text;html=1;strokeColor=none;fillColor=none;align=center;verticalAlign=middle;whiteSpace=wrap;rounded=0;" vertex="1" parent="1">
          <mxGeometry x="370" y="785" width="100" height="30" as="geometry" />
        </mxCell>
        <mxCell id="7HEqON2udwgyDMfMpNwl-30" value="Feed Forward" style="text;html=1;strokeColor=none;fillColor=none;align=center;verticalAlign=middle;whiteSpace=wrap;rounded=0;" vertex="1" parent="1">
          <mxGeometry x="370" y="705" width="100" height="30" as="geometry" />
        </mxCell>
        <mxCell id="7HEqON2udwgyDMfMpNwl-31" value="linear layer" style="text;html=1;strokeColor=none;fillColor=none;align=center;verticalAlign=middle;whiteSpace=wrap;rounded=0;" vertex="1" parent="1">
          <mxGeometry x="370" y="625" width="100" height="30" as="geometry" />
        </mxCell>
        <mxCell id="7HEqON2udwgyDMfMpNwl-32" value="NaN &amp;amp; fast convergence detection" style="text;html=1;strokeColor=none;fillColor=none;align=center;verticalAlign=middle;whiteSpace=wrap;rounded=0;" vertex="1" parent="1">
          <mxGeometry x="370" y="540" width="100" height="40" as="geometry" />
        </mxCell>
        <mxCell id="7HEqON2udwgyDMfMpNwl-38" style="edgeStyle=orthogonalEdgeStyle;rounded=0;orthogonalLoop=1;jettySize=auto;html=1;exitX=0.5;exitY=0;exitDx=0;exitDy=0;entryX=0.5;entryY=1;entryDx=0;entryDy=0;" edge="1" parent="1" source="7HEqON2udwgyDMfMpNwl-34" target="7HEqON2udwgyDMfMpNwl-23">
          <mxGeometry relative="1" as="geometry" />
        </mxCell>
        <mxCell id="7HEqON2udwgyDMfMpNwl-34" value="" style="rounded=1;whiteSpace=wrap;html=1;fillColor=#e1d5e7;strokeColor=#9673a6;" vertex="1" parent="1">
          <mxGeometry x="360" y="880" width="120" height="60" as="geometry" />
        </mxCell>
        <mxCell id="7HEqON2udwgyDMfMpNwl-35" value="Positional Encoding" style="text;html=1;strokeColor=none;fillColor=none;align=center;verticalAlign=middle;whiteSpace=wrap;rounded=0;" vertex="1" parent="1">
          <mxGeometry x="360" y="895" width="120" height="30" as="geometry" />
        </mxCell>
        <mxCell id="7HEqON2udwgyDMfMpNwl-37" style="edgeStyle=orthogonalEdgeStyle;rounded=0;orthogonalLoop=1;jettySize=auto;html=1;exitX=0.5;exitY=0;exitDx=0;exitDy=0;entryX=0.5;entryY=1;entryDx=0;entryDy=0;" edge="1" parent="1" source="7HEqON2udwgyDMfMpNwl-36" target="7HEqON2udwgyDMfMpNwl-34">
          <mxGeometry relative="1" as="geometry" />
        </mxCell>
        <mxCell id="7HEqON2udwgyDMfMpNwl-36" value="empty Forecast timestamps" style="text;html=1;strokeColor=none;fillColor=none;align=center;verticalAlign=middle;whiteSpace=wrap;rounded=0;" vertex="1" parent="1">
          <mxGeometry x="360" y="1000" width="120" height="30" as="geometry" />
        </mxCell>
        <mxCell id="7HEqON2udwgyDMfMpNwl-43" style="edgeStyle=orthogonalEdgeStyle;rounded=0;orthogonalLoop=1;jettySize=auto;html=1;exitX=0.5;exitY=0;exitDx=0;exitDy=0;entryX=0.5;entryY=1;entryDx=0;entryDy=0;" edge="1" parent="1" source="7HEqON2udwgyDMfMpNwl-39" target="7HEqON2udwgyDMfMpNwl-42">
          <mxGeometry relative="1" as="geometry" />
        </mxCell>
        <mxCell id="7HEqON2udwgyDMfMpNwl-39" value="" style="rounded=1;whiteSpace=wrap;html=1;fillColor=#d5e8d4;strokeColor=#82b366;" vertex="1" parent="1">
          <mxGeometry x="360" y="420" width="120" height="60" as="geometry" />
        </mxCell>
        <mxCell id="7HEqON2udwgyDMfMpNwl-41" value="Softmax" style="text;html=1;strokeColor=none;fillColor=none;align=center;verticalAlign=middle;whiteSpace=wrap;rounded=0;" vertex="1" parent="1">
          <mxGeometry x="390" y="435" width="60" height="30" as="geometry" />
        </mxCell>
        <mxCell id="7HEqON2udwgyDMfMpNwl-42" value="Forecast" style="text;html=1;strokeColor=none;fillColor=none;align=center;verticalAlign=middle;whiteSpace=wrap;rounded=0;" vertex="1" parent="1">
          <mxGeometry x="390" y="350" width="60" height="30" as="geometry" />
        </mxCell>
      </root>
    </mxGraphModel>
  </diagram>
</mxfile>
